<svg width="33" height="23" viewBox="0 0 33 23" fill="none" xmlns="http://www.w3.org/2000/svg">
<path d="M33 11.5C33 21.0269 28.3944 23 15.5294 23C2.66442 23 0 21.0269 0 11.5C0 1.97309 2.66442 0 15.5294 0C28.3944 0 33 1.97309 33 11.5Z" fill="#1D014B"/>
<path d="M12.4717 13.7041C12.4717 13.1416 12.2725 12.708 11.874 12.4033C11.4814 12.0986 10.7695 11.791 9.73828 11.4805C8.70703 11.1699 7.88672 10.8242 7.27734 10.4434C6.11133 9.71094 5.52832 8.75586 5.52832 7.57812C5.52832 6.54688 5.94727 5.69727 6.78516 5.0293C7.62891 4.36133 8.72168 4.02734 10.0635 4.02734C10.9541 4.02734 11.748 4.19141 12.4453 4.51953C13.1426 4.84766 13.6904 5.31641 14.0889 5.92578C14.4873 6.5293 14.6865 7.2002 14.6865 7.93848H12.4717C12.4717 7.27051 12.2607 6.74902 11.8389 6.37402C11.4229 5.99316 10.8252 5.80273 10.0459 5.80273C9.31934 5.80273 8.75391 5.95801 8.34961 6.26855C7.95117 6.5791 7.75195 7.0127 7.75195 7.56934C7.75195 8.03809 7.96875 8.43066 8.40234 8.74707C8.83594 9.05762 9.55078 9.3623 10.5469 9.66113C11.543 9.9541 12.3428 10.291 12.9463 10.6719C13.5498 11.0469 13.9922 11.4805 14.2734 11.9727C14.5547 12.459 14.6953 13.0303 14.6953 13.6865C14.6953 14.7529 14.2852 15.6025 13.4648 16.2354C12.6504 16.8623 11.543 17.1758 10.1426 17.1758C9.2168 17.1758 8.36426 17.0059 7.58496 16.666C6.81152 16.3203 6.20801 15.8457 5.77441 15.2422C5.34668 14.6387 5.13281 13.9355 5.13281 13.1328H7.35645C7.35645 13.8594 7.59668 14.4219 8.07715 14.8203C8.55762 15.2188 9.24609 15.418 10.1426 15.418C10.916 15.418 11.4961 15.2627 11.8828 14.9521C12.2754 14.6357 12.4717 14.2197 12.4717 13.7041ZM26.8594 10.9355C26.8594 12.1895 26.6426 13.291 26.209 14.2402C25.7754 15.1836 25.1543 15.9102 24.3457 16.4199C23.543 16.9238 22.6172 17.1758 21.5684 17.1758C20.5312 17.1758 19.6055 16.9238 18.791 16.4199C17.9824 15.9102 17.3555 15.1865 16.9102 14.249C16.4707 13.3115 16.248 12.2305 16.2422 11.0059V10.2852C16.2422 9.03711 16.4619 7.93555 16.9014 6.98047C17.3467 6.02539 17.9707 5.2959 18.7734 4.79199C19.582 4.28223 20.5078 4.02734 21.5508 4.02734C22.5938 4.02734 23.5166 4.2793 24.3193 4.7832C25.1279 5.28125 25.752 6.00195 26.1914 6.94531C26.6309 7.88281 26.8535 8.97559 26.8594 10.2236V10.9355ZM24.6357 10.2676C24.6357 8.84961 24.3662 7.7627 23.8271 7.00684C23.2939 6.25098 22.5352 5.87305 21.5508 5.87305C20.5898 5.87305 19.8369 6.25098 19.292 7.00684C18.7529 7.75684 18.4775 8.82031 18.4658 10.1973V10.9355C18.4658 12.3418 18.7383 13.4287 19.2832 14.1963C19.834 14.9639 20.5957 15.3477 21.5684 15.3477C22.5527 15.3477 23.3086 14.9727 23.8359 14.2227C24.3691 13.4727 24.6357 12.377 24.6357 10.9355V10.2676Z" fill="white"/>
</svg>
